<?xml version="1.0" encoding="UTF-8"?>
<svg id="Calque_2" data-name="Calque 2" xmlns="http://www.w3.org/2000/svg" viewBox="0 0 89.12 84.47">
  <defs>
    <style>
      .cls-1 {
        fill: #f45004;
      }
    </style>
  </defs>
  <g id="Calque_1-2" data-name="Calque 1">
    <g>
      <path class="cls-1" d="M86.2,21.77c-.08-.06-.17-.13-.26-.18-.57-.35-1.27-.39-2.15.02-5.08,2.39-15.36,7.71-23.89,12.17-.53.28-.72.96-.37,1.44.83,1.13.86,2.74-.16,3.93-.83.98-2.25,1.35-3.45.91-.96-.35-1.62-1.09-1.91-1.95-.19-.56-.87-.78-1.4-.51-1.78.93-3.29,1.74-4.4,2.33-.79.41-.68,1.56.16,1.83l23.32,7.48c1.18.38,2.48,0,3.26-.97l12.45-15.49c2.7-3.37,2.16-8.3-1.2-11.01ZM73.45,29.65c1.15-.63,2.59-.22,3.22.93.64,1.14.23,2.58-.91,3.22-1.15.63-2.59.22-3.23-.92-.63-1.15-.22-2.59.92-3.23ZM67.42,44.34c-1.23-1.01-1.67-2.78-1.06-4.25.99-2.4,4.01-3.1,5.96-1.35,1.1.99,1.51,2.61,1,4-.9,2.45-3.9,3.26-5.9,1.6Z"/>
      <path class="cls-1" d="M37.66,43.42l29.92-21.74c1.17-.85,1.08-2.63-.18-3.35L37.28.94c-3.35-1.93-7.63-.79-9.56,2.56L.94,49.89c-1.93,3.35-.79,7.63,2.56,9.56l7.35,4.24c1.43.83,1.93,2.66,1.1,4.1l-3.85,6.67c-.83,1.43-.34,3.27,1.1,4.1l9.55,5.51c1.43.83,3.27.34,4.1-1.1l3.85-6.67c.83-1.43,2.66-1.93,4.1-1.1l7.34,4.24c3.35,1.93,7.63.79,9.56-2.56l13.94-24.15c.7-1.22-.03-2.76-1.42-2.98l-21.88-3.46c-1.41-.22-1.84-2.04-.69-2.87Z"/>
    </g>
  </g>
</svg>