<?xml version="1.0" encoding="UTF-8"?>
<svg id="Calque_2" data-name="Calque 2" xmlns="http://www.w3.org/2000/svg" viewBox="0 0 327.76 84.47">
  <defs>
    <style>
      .cls-1 {
        fill: #332b29;
      }

      .cls-2 {
        fill: #f45004;
      }
    </style>
  </defs>
  <g id="Calque_1-2" data-name="Calque 1">
    <g>
      <path class="cls-2" d="M86.2,21.77c-.08-.06-.17-.13-.26-.18-.57-.35-1.27-.39-2.15.02-5.08,2.39-15.36,7.71-23.89,12.17-.53.28-.72.96-.37,1.44.83,1.13.86,2.74-.16,3.93-.83.98-2.25,1.35-3.45.91-.96-.35-1.62-1.09-1.91-1.95-.19-.56-.87-.78-1.4-.51-1.78.93-3.29,1.74-4.4,2.33-.79.41-.68,1.56.16,1.83l23.32,7.48c1.18.38,2.48,0,3.26-.97l12.45-15.49c2.7-3.37,2.16-8.3-1.2-11.01ZM73.45,29.65c1.15-.63,2.59-.22,3.22.93.64,1.14.23,2.58-.91,3.22-1.15.63-2.59.22-3.23-.92-.63-1.15-.22-2.59.92-3.23ZM67.42,44.34c-1.23-1.01-1.67-2.78-1.06-4.25.99-2.4,4.01-3.1,5.96-1.35,1.1.99,1.51,2.61,1,4-.9,2.45-3.9,3.26-5.9,1.6Z"/>
      <path class="cls-2" d="M37.66,43.42l29.92-21.74c1.17-.85,1.08-2.63-.18-3.35L37.28.94c-3.35-1.93-7.63-.79-9.56,2.56L.94,49.89c-1.93,3.35-.79,7.63,2.56,9.56l7.35,4.24c1.43.83,1.93,2.66,1.1,4.1l-3.85,6.67c-.83,1.43-.34,3.27,1.1,4.1l9.55,5.51c1.43.83,3.27.34,4.1-1.1l3.85-6.67c.83-1.43,2.66-1.93,4.1-1.1l7.34,4.24c3.35,1.93,7.63.79,9.56-2.56l13.94-24.15c.7-1.22-.03-2.76-1.42-2.98l-21.88-3.46c-1.41-.22-1.84-2.04-.69-2.87Z"/>
    </g>
    <g>
      <path class="cls-1" d="M152.84,38.88c0,3.47-.89,6.47-2.68,9-1.79,2.53-4.31,4.49-7.56,5.88s-7.08,2.08-11.48,2.08c-2.93,0-5.62-.31-8.06-.92-2.44-.61-4.57-1.48-6.38-2.6l.56-3.64c.99.67,2.04,1.22,3.16,1.66,1.12.44,2.31.77,3.56,1s2.56.34,3.92.34c2.45,0,4.64-.51,6.56-1.52,1.92-1.01,3.43-2.49,4.54-4.44,1.11-1.95,1.66-4.32,1.66-7.12,0-3.25-.65-6.08-1.96-8.48-1.31-2.4-3.13-4.25-5.48-5.56s-5.11-1.96-8.28-1.96h-3.16v45.12c0,.61.16,1.13.48,1.54s.83.67,1.52.78l3.52.48c.69.13,1.19.37,1.48.7.29.33.44.81.44,1.42,0,.56-.2,1.01-.6,1.36-.4.35-1.03.52-1.88.52h-20.88c-.85,0-1.48-.17-1.88-.52-.4-.35-.6-.8-.6-1.36,0-1.04.57-1.73,1.72-2.08l2.28-.52c.64-.19,1.13-.47,1.48-.84.35-.37.52-.87.52-1.48V25.32c0-.61-.17-1.11-.52-1.48s-.84-.65-1.48-.84l-2.28-.52c-1.15-.35-1.72-1.04-1.72-2.08,0-.59.2-1.05.6-1.38.4-.33,1.03-.5,1.88-.5h19.4c5.84,0,10.81.87,14.92,2.62,4.11,1.75,7.25,4.16,9.42,7.24s3.26,6.58,3.26,10.5Z"/>
      <path class="cls-1" d="M171.16,17.64v50.36c0,.83.12,1.44.36,1.84.24.4.6.68,1.08.84l1.48.4c.53.16.93.39,1.18.68.25.29.38.65.38,1.08,0,.51-.19.91-.56,1.22-.37.31-.95.46-1.72.46h-15.72c-.77,0-1.34-.15-1.7-.46-.36-.31-.54-.71-.54-1.22,0-.43.12-.78.36-1.06.24-.28.61-.51,1.12-.7l1.56-.4c.48-.19.84-.47,1.08-.84s.36-.99.36-1.84V24.44c0-.69-.11-1.19-.32-1.48-.21-.29-.55-.48-1-.56l-2.12-.16c-.48-.13-.83-.32-1.04-.56-.21-.24-.32-.55-.32-.92,0-.45.13-.82.4-1.1.27-.28.76-.55,1.48-.82l7.32-2.72c1.07-.4,1.92-.68,2.56-.84.64-.16,1.19-.24,1.64-.24.91,0,1.58.24,2.02.72.44.48.66,1.11.66,1.88Z"/>
      <path class="cls-1" d="M180.8,66.12c0-3.33,1.49-6.03,4.48-8.08,2.99-2.05,7.16-3.08,12.52-3.08,1.73,0,3.3.15,4.7.44,1.4.29,2.61.68,3.62,1.16l-.88,2.64c-.91-.43-1.83-.76-2.78-1-.95-.24-1.97-.36-3.06-.36-2.21,0-3.95.57-5.2,1.7-1.25,1.13-1.88,2.7-1.88,4.7s.53,3.49,1.6,4.56,2.44,1.6,4.12,1.6c1.44,0,2.83-.33,4.16-1,1.33-.67,2.45-1.59,3.36-2.76l.88,2.36c-1.49,2.08-3.48,3.69-5.96,4.82-2.48,1.13-5.11,1.7-7.88,1.7-3.49,0-6.33-.87-8.52-2.6-2.19-1.73-3.28-4-3.28-6.8ZM204.88,69.4v-.84l-.76-.2v-23.8c0-1.89-.48-3.35-1.44-4.38s-2.31-1.54-4.04-1.54c-1.57,0-2.79.34-3.64,1.02-.85.68-1.28,1.5-1.28,2.46v3.52c0,1.63-.54,2.87-1.62,3.74s-2.59,1.3-4.54,1.3c-1.68,0-2.95-.39-3.8-1.18-.85-.79-1.28-1.87-1.28-3.26,0-1.68.69-3.33,2.08-4.96,1.39-1.63,3.43-2.97,6.14-4.02,2.71-1.05,6.05-1.58,10.02-1.58,4.91,0,8.56.99,10.96,2.98,2.4,1.99,3.6,4.67,3.6,8.06v20.8c0,.75.15,1.31.46,1.68.31.37.74.56,1.3.56s1.03-.14,1.32-.42c.29-.28.55-.55.76-.82.16-.19.32-.35.48-.48.16-.13.36-.2.6-.2.32,0,.56.13.72.38.16.25.24.58.24.98,0,.91-.31,1.85-.94,2.82-.63.97-1.57,1.8-2.82,2.48-1.25.68-2.8,1.02-4.64,1.02-2.4,0-4.31-.55-5.74-1.64-1.43-1.09-2.14-2.59-2.14-4.48Z"/>
      <path class="cls-1" d="M227.48,40.52l-1.84-.52c-.64-.21-1.09-.46-1.36-.74-.27-.28-.4-.62-.4-1.02,0-.53.19-.95.56-1.24.37-.29.87-.44,1.48-.44h2.4c.64,0,1.18-.12,1.62-.36.44-.24.9-.68,1.38-1.32l4.28-6.08c.56-.69,1.1-1.21,1.62-1.54.52-.33,1.03-.5,1.54-.5.59,0,1.03.18,1.34.54.31.36.46.87.46,1.54v34.2c0,1.87.37,3.29,1.1,4.28.73.99,1.77,1.48,3.1,1.48.99,0,1.75-.19,2.3-.58.55-.39.98-.83,1.3-1.34s.63-.96.94-1.36.7-.6,1.18-.6c.4,0,.72.14.96.42.24.28.36.73.36,1.34,0,1.52-.49,2.94-1.48,4.26-.99,1.32-2.35,2.39-4.1,3.2-1.75.81-3.73,1.22-5.94,1.22-3.44,0-6.13-.86-8.08-2.58-1.95-1.72-2.92-4.33-2.92-7.82v-22c0-.69-.14-1.21-.42-1.56-.28-.35-.74-.64-1.38-.88ZM236.08,40.6v-4.04h13.28c.64,0,1.14.13,1.5.4s.54.64.54,1.12c0,.72-.35,1.32-1.06,1.8-.71.48-1.85.72-3.42.72h-10.84Z"/>
      <path class="cls-1" d="M256.6,40.52l-1.84-.52c-.64-.21-1.09-.46-1.36-.74-.27-.28-.4-.62-.4-1.02,0-.53.19-.95.56-1.24.37-.29.87-.44,1.48-.44h2.4c.64,0,1.18-.12,1.62-.36.44-.24.9-.68,1.38-1.32l4.28-6.08c.56-.69,1.1-1.21,1.62-1.54.52-.33,1.03-.5,1.54-.5.59,0,1.03.18,1.34.54.31.36.46.87.46,1.54v34.2c0,1.87.37,3.29,1.1,4.28.73.99,1.77,1.48,3.1,1.48.99,0,1.75-.19,2.3-.58.55-.39.98-.83,1.3-1.34s.63-.96.94-1.36.7-.6,1.18-.6c.4,0,.72.14.96.42.24.28.36.73.36,1.34,0,1.52-.49,2.94-1.48,4.26-.99,1.32-2.35,2.39-4.1,3.2-1.75.81-3.73,1.22-5.94,1.22-3.44,0-6.13-.86-8.08-2.58-1.95-1.72-2.92-4.33-2.92-7.82v-22c0-.69-.14-1.21-.42-1.56-.28-.35-.74-.64-1.38-.88ZM265.2,40.6v-4.04h13.28c.64,0,1.14.13,1.5.4s.54.64.54,1.12c0,.72-.35,1.32-1.06,1.8-.71.48-1.85.72-3.42.72h-10.84Z"/>
      <path class="cls-1" d="M306.92,35.64c4.13,0,7.77.85,10.9,2.54,3.13,1.69,5.57,4.04,7.32,7.04s2.62,6.49,2.62,10.46c0,3.76-.9,7.14-2.7,10.14s-4.29,5.37-7.48,7.1c-3.19,1.73-6.87,2.6-11.06,2.6s-7.76-.85-10.88-2.56c-3.12-1.71-5.56-4.07-7.32-7.08-1.76-3.01-2.64-6.48-2.64-10.4s.9-7.21,2.7-10.2c1.8-2.99,4.29-5.34,7.48-7.06s6.87-2.58,11.06-2.58ZM309.76,71.24c1.84-.29,3.31-1.13,4.42-2.52,1.11-1.39,1.81-3.3,2.1-5.74s.12-5.38-.52-8.82c-.61-3.41-1.51-6.23-2.68-8.46-1.17-2.23-2.57-3.83-4.18-4.8-1.61-.97-3.35-1.3-5.22-.98-1.84.29-3.31,1.13-4.42,2.52-1.11,1.39-1.8,3.3-2.08,5.74-.28,2.44-.11,5.38.5,8.82.61,3.41,1.51,6.23,2.7,8.46s2.58,3.83,4.18,4.8c1.6.97,3.33,1.3,5.2.98Z"/>
    </g>
  </g>
</svg>