<svg width="16" height="16" viewBox="0 0 16 16" fill="none" xmlns="http://www.w3.org/2000/svg">
<rect width="16" height="16" fill="white"/>
<g clip-path="url(#clip0_1061_6983)">
<path d="M14.5413 4.12379C14.5287 4.11243 14.5146 4.09917 14.5004 4.0897C14.4109 4.0234 14.3009 4.01582 14.1627 4.09348C13.3647 4.54619 11.7498 5.55388 10.4098 6.39868C10.3265 6.45172 10.2967 6.58052 10.3517 6.67144C10.482 6.88548 10.4868 7.19044 10.3265 7.41585C10.1961 7.60148 9.97307 7.67156 9.78456 7.58822C9.63375 7.52192 9.53007 7.38175 9.48452 7.21885C9.45467 7.11278 9.34785 7.07111 9.26459 7.12225C8.98496 7.29841 8.74776 7.45184 8.57338 7.56359C8.44928 7.64125 8.46656 7.85908 8.59852 7.91022L12.2619 9.32706C12.4473 9.39904 12.6515 9.32706 12.774 9.14332L14.7298 6.20927C15.154 5.57093 15.0691 4.63711 14.5413 4.12379ZM12.5384 5.61639C12.719 5.49706 12.9452 5.57472 13.0442 5.79255C13.1447 6.00848 13.0803 6.28124 12.9013 6.40247C12.7206 6.5218 12.4944 6.44414 12.3939 6.22821C12.2949 6.01038 12.3593 5.73762 12.5384 5.61639ZM11.5911 8.39892C11.3979 8.20761 11.3288 7.87234 11.4246 7.5939C11.5801 7.1393 12.0545 7.00671 12.3609 7.33819C12.5337 7.52571 12.5981 7.83256 12.518 8.09585C12.3766 8.55992 11.9053 8.71335 11.5911 8.39892Z" fill="#F45004"/>
<path d="M6.91598 8.22444L11.6162 4.10653C11.8 3.94553 11.7858 3.60837 11.5879 3.47199L6.85629 0.178038C6.33003 -0.187536 5.65768 0.0283987 5.35449 0.662943L1.14758 9.44997C0.844395 10.0845 1.02348 10.8952 1.54974 11.2608L2.70436 12.0639C2.929 12.2211 3.00755 12.5678 2.87716 12.8405L2.27236 14.1039C2.14197 14.3748 2.21895 14.7233 2.44516 14.8805L3.94538 15.9242C4.17002 16.0814 4.45907 15.9886 4.58946 15.7159L5.19426 14.4525C5.32465 14.1816 5.61212 14.0869 5.83834 14.2441L6.99139 15.0472C7.51764 15.4128 8.19 15.1969 8.49318 14.5623L10.683 9.98791C10.793 9.75682 10.6783 9.46512 10.46 9.42345L7.02281 8.76807C6.80131 8.7264 6.73376 8.38166 6.91441 8.22444H6.91598Z" fill="#F45004"/>
</g>
<defs>
<clipPath id="clip0_1061_6983">
<rect width="14" height="16" fill="white" transform="translate(1)"/>
</clipPath>
</defs>
</svg>
